<svg width="14" height="14" viewBox="0 0 14 14" fill="none" xmlns="http://www.w3.org/2000/svg">
<path d="M13.364 2.05025C13.7545 1.65972 13.7545 1.02656 13.364 0.636033C12.9734 0.245508 12.3403 0.245509 11.9497 0.636033L6.99999 5.58579L2.05026 0.636061C1.65974 0.245537 1.02657 0.245537 0.63605 0.636061C0.245526 1.02659 0.245526 1.65975 0.63605 2.05028L5.58577 7L0.636033 11.9497C0.245509 12.3403 0.245508 12.9734 0.636033 13.364C1.02656 13.7545 1.65972 13.7545 2.05025 13.364L6.99999 8.41421L11.9498 13.364C12.3403 13.7545 12.9734 13.7545 13.364 13.364C13.7545 12.9735 13.7545 12.3403 13.364 11.9498L8.4142 7L13.364 2.05025Z" fill="#1C1C21"/>
</svg>
